<svg version="1.1" id="Layer_1" xmlns="http://www.w3.org/2000/svg" xmlns:xlink="http://www.w3.org/1999/xlink" x="0px" y="0px"
	 width="100%" viewBox="0 0 500 500" enable-background="new 0 0 500 500" xml:space="preserve">
<path fill="#1C2120" opacity="1.000000" stroke="none" 
	d="
M315.000000,501.000000 
	C210.000031,501.000000 105.500053,501.000000 1.000056,501.000000 
	C1.000037,334.333405 1.000037,167.666794 1.000019,1.000146 
	C167.666565,1.000097 334.333130,1.000097 500.999756,1.000049 
	C500.999847,167.666519 500.999847,334.333038 500.999939,500.999786 
	C439.166656,501.000000 377.333344,501.000000 315.000000,501.000000 
M163.539932,319.023682 
	C226.618546,319.023682 289.697144,319.023682 352.831635,319.023682 
	C352.831635,256.422668 352.831635,194.364899 352.831635,132.315430 
	C286.266052,132.315430 219.934708,132.315430 153.713135,132.315430 
	C153.713135,194.741470 153.713135,256.777069 153.713135,319.023682 
	C156.906479,319.023682 159.732101,319.023682 163.539932,319.023682 
z"/>
<path fill="#F6F6F6" opacity="1.000000" stroke="none" 
	d="
M163.048828,319.023682 
	C159.732101,319.023682 156.906479,319.023682 153.713135,319.023682 
	C153.713135,256.777069 153.713135,194.741470 153.713135,132.315430 
	C219.934708,132.315430 286.266052,132.315430 352.831635,132.315430 
	C352.831635,194.364899 352.831635,256.422668 352.831635,319.023682 
	C289.697144,319.023682 226.618546,319.023682 163.048828,319.023682 
M345.337250,220.500153 
	C345.337250,193.742371 345.337250,166.984573 345.337250,140.215897 
	C283.581268,140.215897 222.393036,140.215897 161.274292,140.215897 
	C161.274292,197.318558 161.274292,254.067322 161.274292,310.795776 
	C222.740341,310.795776 283.951263,310.795776 345.337280,310.795776 
	C345.337280,280.802887 345.337280,251.151535 345.337250,220.500153 
z"/>
<path fill="#1C2120" opacity="1.000000" stroke="none" 
	d="
M345.337280,221.000168 
	C345.337280,251.151535 345.337280,280.802887 345.337280,310.795776 
	C283.951263,310.795776 222.740341,310.795776 161.274292,310.795776 
	C161.274292,254.067322 161.274292,197.318558 161.274292,140.215897 
	C222.393036,140.215897 283.581268,140.215897 345.337250,140.215897 
	C345.337250,166.984573 345.337250,193.742371 345.337280,221.000168 
M260.207092,199.658096 
	C259.949432,195.550171 260.419037,191.231476 259.300873,187.372910 
	C255.607361,174.627594 245.537903,169.095963 233.439911,168.147537 
	C218.693695,166.991531 203.827301,167.357101 189.012344,167.096893 
	C185.246216,167.030746 181.477921,167.086990 177.723206,167.086990 
	C177.723206,203.750641 177.723206,239.780975 177.723206,275.864166 
	C195.265152,275.864166 212.424500,276.071106 229.572937,275.729492 
	C234.299866,275.635345 239.168762,274.404633 243.670486,272.831268 
	C256.711121,268.273499 264.620605,256.972931 264.685730,243.628204 
	C264.749786,230.500244 258.964722,222.456390 246.126785,217.781006 
	C245.938843,217.712555 245.864777,217.331436 245.577744,216.800812 
	C252.711853,213.444626 258.532715,208.803253 260.207092,199.658096 
M288.476593,246.081360 
	C283.759827,253.789902 283.910614,261.099823 288.902069,266.707947 
	C293.845886,272.262604 301.954041,274.059235 308.405334,270.867310 
	C314.669800,267.767822 317.631104,262.717468 317.397675,255.625198 
	C317.164459,248.540848 313.947510,243.467072 307.430878,241.039108 
	C300.479370,238.449127 294.077667,239.740921 288.476593,246.081360 
M298.500000,174.000778 
	C308.565704,174.000778 318.631439,174.000778 328.543152,174.000778 
	C328.543152,170.609711 328.543152,167.892792 328.543152,165.316177 
	C310.164307,165.316177 292.138367,165.316177 274.294312,165.316177 
	C274.294312,168.370270 274.294312,171.100616 274.294312,173.760468 
	C274.939026,173.873703 275.255737,173.977325 275.572632,173.977951 
	C282.881744,173.992340 290.190887,173.995514 298.500000,174.000778 
z"/>
<path fill="#FCFCFC" opacity="1.000000" stroke="none" 
	d="
M260.137146,200.063217 
	C258.532715,208.803253 252.711853,213.444626 245.577744,216.800812 
	C245.864777,217.331436 245.938843,217.712555 246.126785,217.781006 
	C258.964722,222.456390 264.749786,230.500244 264.685730,243.628204 
	C264.620605,256.972931 256.711121,268.273499 243.670486,272.831268 
	C239.168762,274.404633 234.299866,275.635345 229.572937,275.729492 
	C212.424500,276.071106 195.265152,275.864166 177.723206,275.864166 
	C177.723206,239.780975 177.723206,203.750641 177.723206,167.086990 
	C181.477921,167.086990 185.246216,167.030746 189.012344,167.096893 
	C203.827301,167.357101 218.693695,166.991531 233.439911,168.147537 
	C245.537903,169.095963 255.607361,174.627594 259.300873,187.372910 
	C260.419037,191.231476 259.949432,195.550171 260.137146,200.063217 
M204.900299,256.671936 
	C212.198380,256.560669 219.520203,256.775665 226.787888,256.246643 
	C234.107529,255.713898 238.528702,250.621216 238.805542,243.451782 
	C239.083862,236.243332 235.054810,230.581436 227.731064,229.957611 
	C219.396484,229.247681 210.954926,229.793503 202.112122,229.793503 
	C202.112122,238.000244 202.073349,246.420990 202.192459,254.839508 
	C202.201126,255.452576 203.355103,256.049469 204.900299,256.671936 
M202.821777,210.862503 
	C210.455322,210.629898 218.152084,210.918854 225.702850,210.003479 
	C232.005173,209.239487 235.035645,204.579605 234.869431,198.282608 
	C234.711700,192.307373 231.420547,187.886902 225.409760,187.220764 
	C217.865601,186.384705 210.226349,186.406601 202.176910,186.037537 
	C202.176910,194.605545 202.176910,202.382996 202.821777,210.862503 
z"/>
<path fill="#FCFCFC" opacity="1.000000" stroke="none" 
	d="
M288.717712,245.798950 
	C294.077667,239.740921 300.479370,238.449127 307.430878,241.039108 
	C313.947510,243.467072 317.164459,248.540848 317.397675,255.625198 
	C317.631104,262.717468 314.669800,267.767822 308.405334,270.867310 
	C301.954041,274.059235 293.845886,272.262604 288.902069,266.707947 
	C283.910614,261.099823 283.759827,253.789902 288.717712,245.798950 
z"/>
<path fill="#FEFEFE" opacity="1.000000" stroke="none" 
	d="
M298.000000,174.000778 
	C290.190887,173.995514 282.881744,173.992340 275.572632,173.977951 
	C275.255737,173.977325 274.939026,173.873703 274.294312,173.760468 
	C274.294312,171.100616 274.294312,168.370270 274.294312,165.316177 
	C292.138367,165.316177 310.164307,165.316177 328.543152,165.316177 
	C328.543152,167.892792 328.543152,170.609711 328.543152,174.000778 
	C318.631439,174.000778 308.565704,174.000778 298.000000,174.000778 
z"/>
<path fill="#222625" opacity="1.000000" stroke="none" 
	d="
M204.438446,256.662903 
	C203.355103,256.049469 202.201126,255.452576 202.192459,254.839508 
	C202.073349,246.420990 202.112122,238.000244 202.112122,229.793503 
	C210.954926,229.793503 219.396484,229.247681 227.731064,229.957611 
	C235.054810,230.581436 239.083862,236.243332 238.805542,243.451782 
	C238.528702,250.621216 234.107529,255.713898 226.787888,256.246643 
	C219.520203,256.775665 212.198380,256.560669 204.438446,256.662903 
z"/>
<path fill="#212625" opacity="1.000000" stroke="none" 
	d="
M202.499344,210.511475 
	C202.176910,202.382996 202.176910,194.605545 202.176910,186.037537 
	C210.226349,186.406601 217.865601,186.384705 225.409760,187.220764 
	C231.420547,187.886902 234.711700,192.307373 234.869431,198.282608 
	C235.035645,204.579605 232.005173,209.239487 225.702850,210.003479 
	C218.152084,210.918854 210.455322,210.629898 202.499344,210.511475 
z"/>
</svg>